# 3ds Max Wavefront OBJ Exporter v0.99 - (c)2007 guruware
# File Created: 02.05.2020 01:24:12

mtllib BatmanPieD.mtl

#
# object Part_6
#

v  -6.4000 0.6937 -1.7000
v  -5.8000 1.8627 -1.7000
v  -6.2120 -0.3633 -1.7000
v  -6.2120 -0.3633 -3.6000
v  -5.8000 -0.9853 -1.7000
v  -6.4000 0.6937 -3.4760
v  -6.2000 1.5607 -3.1170
v  -6.2000 1.5607 -1.7000
v  -5.7030 -1.1363 -1.7000
v  -5.7030 -1.1363 -3.6000
v  -4.9180 -1.6543 -3.6000
v  -4.9180 -1.6543 -1.7000
v  -4.0000 3.0487 -1.7000
v  -4.4810 2.9197 -1.7000
v  -4.0000 3.0487 -1.3930
v  -3.0820 -5.2203 -3.6000
v  -2.3030 -5.7403 -3.6000
v  -3.0820 -5.2203 -2.0000
v  -2.3030 -5.7403 -2.0000
v  -4.0000 -5.0373 -3.6000
v  -4.0000 -5.0373 -2.0000
v  -4.9180 -5.2203 -3.6000
v  -4.9180 -5.2203 -2.0000
v  -5.6970 -5.7403 -3.6000
v  -5.6970 -5.7403 -2.0000
v  -6.2170 -6.5193 -3.6000
v  -6.2170 -6.5193 -2.0000
v  -6.4000 -7.4373 -3.6000
v  -6.4000 -7.4373 -2.0000
v  -6.2170 -8.3553 -3.6000
v  -6.2170 -8.3553 -2.0000
v  -5.6970 -9.1343 -3.6000
v  -5.6970 -9.1343 -2.0000
v  -4.9180 -9.6543 -3.6000
v  -4.9180 -9.6543 -2.0000
v  -4.0000 -9.8373 -3.6000
v  -4.0000 -9.8373 -2.0000
v  -3.0820 -9.6543 -3.6000
v  -3.0820 -9.6543 -2.0000
v  -2.3030 -9.1343 -3.6000
v  -2.3030 -9.1343 -2.0000
v  -1.7830 -8.3553 -3.6000
v  -1.7830 -8.3553 -2.0000
v  -1.6000 -7.4373 -3.6000
v  -1.6000 -7.4373 -2.0000
v  -1.7830 -6.5193 -3.6000
v  -1.7830 -6.5193 -2.0000
v  -7.7000 -11.4173 4.3600
v  -7.5920 -8.2373 4.3600
v  -7.7000 -11.4173 -3.6000
v  -7.5920 -8.2373 2.0000
v  -0.8400 -3.5023 2.0000
v  -7.4200 -3.2003 2.0000
v  -0.5000 -8.2373 2.0000
v  -7.4060 -2.7813 2.5430
v  -0.8400 -2.7813 2.5430
v  -0.8400 -3.2003 2.0000
v  -7.3510 -1.1693 3.4740
v  -7.3810 -2.0363 3.1150
v  -0.8400 -1.1693 3.4740
v  -0.8400 -2.0363 3.1150
v  -7.2870 0.6937 3.4740
v  -7.3190 -0.2373 3.5970
v  -0.8400 0.6937 3.4740
v  -0.8400 -0.2373 3.5970
v  -0.5000 -2.1733 -3.4810
v  -0.5000 -1.9553 -3.6000
v  -0.8400 -2.1733 -3.4810
v  -0.8400 -1.9553 -3.6000
v  -0.5000 -2.6293 -3.1170
v  -0.8400 -2.6293 -3.1170
v  -0.5000 -3.2133 -2.5450
v  -0.8400 -3.2133 -2.5450
v  -0.5000 -3.6973 -1.8500
v  -0.8400 -3.6973 -1.8500
v  -0.5000 -4.0103 -0.9320
v  -0.8400 -4.0103 -0.9320
v  -0.5000 -4.1363 -0.0000
v  -0.8400 -4.1363 -0.0000
v  -0.5000 -4.0173 0.8060
v  -0.8400 -4.0173 0.8060
v  -0.5000 -3.5023 2.0000
v  -6.4000 -2.4373 1.2000
v  -6.4000 -2.4373 -2.0000
v  -1.6000 -2.4373 1.2000
v  -1.6000 -2.4373 -2.0000
v  -0.5000 -8.2373 4.3600
v  -0.5000 -11.4173 4.3600
v  -0.5000 -11.4173 -3.6000
v  -7.2580 1.5607 3.1150
v  -0.8400 1.5607 3.1150
v  -1.6000 -9.4373 2.8000
v  -6.4000 -9.4373 2.8000
v  -1.6000 -9.4373 1.2000
v  -6.4000 -9.4373 1.2000
v  -6.4000 -11.4173 2.8000
v  -1.6000 -11.4173 2.8000
v  -6.4000 -11.4173 -2.0000
v  -7.2000 3.2377 -0.9320
v  -7.1970 3.3627 -0.0000
v  -0.8400 3.2377 -0.9320
v  -0.8400 3.3627 -0.0000
v  -7.2130 2.8777 1.7980
v  -7.2330 2.3057 2.5430
v  -0.8400 2.8777 1.7980
v  -0.8400 2.3057 2.5430
v  -0.8400 0.6937 -3.4760
v  -0.8400 -0.2373 -3.6000
v  -1.6000 0.6937 -3.4760
v  -1.7810 -0.3573 -3.6000
v  -7.2000 3.2377 0.9300
v  -0.8400 3.2377 0.9300
v  -1.6000 -11.4173 -2.0000
v  -5.8000 -0.9853 1.9210
v  -5.6970 -1.1343 1.8810
v  -4.9180 -1.6543 1.5410
v  -4.0000 -1.8373 -1.7000
v  -4.0000 -1.8373 1.3110
v  -3.0820 -1.6543 1.5410
v  -3.0000 -1.6023 1.5740
v  -3.0820 -1.6543 -1.7000
v  -3.0000 -1.5993 -1.7000
v  -3.0000 -1.1343 1.8810
v  -1.7920 1.5607 -3.1170
v  -1.7910 1.5177 -1.7000
v  -2.2980 2.3057 -2.5450
v  -2.0200 1.8627 -1.7000
v  -2.3000 -1.1363 -3.6000
v  -2.3000 -1.1363 -1.7000
v  -1.7810 -0.3573 -1.7000
v  -1.6000 0.6587 -1.7000
v  -2.2980 2.3057 -1.7000
v  -3.0820 -1.6543 -3.6000
v  -4.0000 -1.8373 -3.6000
v  -3.0000 1.8627 -1.7000
v  -7.2080 2.8777 -1.7980
v  -7.2330 2.3057 -2.5450
v  -7.2580 1.5607 -3.1170
v  -7.2870 0.6937 -3.4760
v  -7.3190 -0.2373 -3.5990
v  -0.8400 -0.6963 1.1090
v  -3.0000 -0.6963 1.1090
v  -0.8400 -0.2373 1.2000
v  -3.0000 -0.2373 1.2000
v  -0.8400 0.2217 1.1090
v  -3.0000 0.2217 1.1090
v  -0.8400 0.6117 0.8490
v  -3.0000 0.6117 0.8490
v  -0.8400 0.8717 0.4590
v  -3.0000 0.8717 0.4590
v  -0.8400 0.9627 -0.0000
v  -3.0000 0.9627 -0.0000
v  -0.8400 -0.2373 -1.2000
v  -3.0000 -0.2373 -1.2000
v  -0.8400 -0.6963 -1.1090
v  -3.0000 -0.6963 -1.1090
v  -0.8400 0.8717 -0.4590
v  -3.0000 0.8717 -0.4590
v  -0.8400 0.6117 -0.8490
v  -3.0000 0.6117 -0.8490
v  -0.8400 -1.0863 -0.8490
v  -3.0000 -1.0863 -0.8490
v  -0.8400 -1.3463 -0.4590
v  -3.0000 -1.3463 -0.4590
v  -0.8400 0.2217 -1.1090
v  -3.0000 0.2217 -1.1090
v  -0.8400 -1.4373 -0.0000
v  -3.0000 -1.4373 -0.0000
v  -0.8400 -1.3463 0.4590
v  -3.0000 -1.3463 0.4590
v  -0.8400 -1.0863 0.8490
v  -3.0000 -1.0863 0.8490
v  -5.7020 2.3057 -1.7000
v  -5.7020 2.3057 -2.5450
v  -0.8400 1.5607 -3.1170
v  -4.6340 2.8787 -1.7970
v  -4.6340 2.8787 -1.7000
v  -3.5190 2.9197 -1.7000
v  -3.3660 2.8787 -1.7970
v  -3.3660 2.8787 -1.7000
v  -0.8400 2.3057 -2.5450
v  -0.8400 2.8777 -1.7980
v  -3.0000 1.8627 0.6990
v  -3.0000 1.3207 1.3930
v  -5.8000 1.8627 0.6990
v  -5.8000 1.3207 1.3930
v  -3.0000 0.5627 1.9360
v  -5.8000 0.5627 1.9360
v  -3.0000 -0.3553 2.0740
v  -5.8000 -0.3553 2.0740
# 190 vertices

vn 0.0000 0.0000 -1.0000
vn 0.8337 0.5522 -0.0000
vn 0.9845 0.1751 -0.0000
vn 0.9744 -0.2248 -0.0000
vn 0.8413 0.5405 -0.0055
vn 0.8352 0.5500 -0.0000
vn 0.5508 0.8347 -0.0000
vn -0.2590 0.9659 -0.0000
vn -0.5552 -0.8317 -0.0000
vn -0.1955 -0.9807 -0.0000
vn 0.1955 -0.9807 -0.0000
vn 0.5552 -0.8317 -0.0000
vn 0.8317 -0.5552 -0.0000
vn 0.9807 -0.1955 -0.0000
vn 0.9807 0.1955 -0.0000
vn 0.8317 0.5552 -0.0000
vn 0.5552 0.8317 -0.0000
vn 0.1955 0.9807 -0.0000
vn -0.1955 0.9807 -0.0000
vn -0.5552 0.8317 -0.0000
vn -0.8317 0.5552 -0.0000
vn -0.9807 0.1955 -0.0000
vn -0.9807 -0.1955 -0.0000
vn -0.8317 -0.5552 -0.0000
vn -0.9994 0.0339 -0.0000
vn 0.0000 0.0000 1.0000
vn 0.0000 -0.7917 0.6109
vn 0.0000 -0.3826 0.9239
vn 0.0000 0.1310 0.9914
vn 0.0000 0.4791 0.8777
vn 0.0000 0.6239 0.7815
vn 0.0000 0.6997 0.7144
vn 0.0000 0.8206 0.5715
vn 0.0000 0.9465 0.3227
vn 0.0000 0.9910 0.1340
vn 0.0000 0.9893 -0.1461
vn 0.0000 0.9182 -0.3961
vn 0.0000 -1.0000 -0.0000
vn 1.0000 0.0000 -0.0000
vn 0.0000 -0.6090 0.7932
vn 0.0000 -0.1308 0.9914
vn 0.0000 0.3826 0.9239
vn 0.0000 0.9911 -0.1329
vn 0.0000 0.7932 0.6090
vn 0.0000 1.0000 -0.0000
vn 0.0000 0.1320 -0.9912
vn -0.0153 0.1197 -0.9927
vn 0.0000 0.9253 -0.3793
vn 0.0000 0.9911 0.1332
vn 0.0000 0.9237 0.3831
vn -1.0000 0.0000 -0.0000
vn 0.0000 0.6090 0.7932
vn 0.8226 0.5686 -0.0000
vn 0.8414 0.5405 -0.0017
vn 0.5508 0.8347 -0.0014
vn -0.5355 0.8445 -0.0000
vn -0.5570 0.8305 0.0008
vn -0.0113 0.5485 -0.8361
vn -0.8329 -0.5532 -0.0162
vn -0.8331 -0.5530 -0.0158
vn -0.8322 0.5545 -0.0000
vn -0.9856 0.1693 0.0033
vn -0.9845 0.1754 -0.0000
vn -0.9768 -0.2139 -0.0058
vn -0.9762 -0.2170 -0.0043
vn -0.8470 -0.5315 -0.0000
vn -0.5517 0.8341 -0.0000
vn -0.5522 0.8337 -0.0003
vn -0.5570 0.8305 -0.0000
vn -0.9997 0.0240 -0.0000
vn -0.9995 0.0327 -0.0014
vn -0.9998 0.0222 -0.0000
vn -0.9990 0.0455 -0.0014
vn -0.9994 0.0349 -0.0000
vn -0.9994 0.0335 -0.0000
vn -0.9994 0.0334 -0.0000
vn -0.9994 0.0344 -0.0000
vn -0.9994 0.0344 -0.0005
vn -0.9994 0.0345 -0.0009
vn -0.9994 0.0358 -0.0030
vn -0.9994 0.0341 -0.0000
vn -0.9994 0.0341 -0.0001
vn 0.0000 0.1165 -0.9932
vn 0.0140 0.1305 -0.9914
vn -0.0003 0.0001 -1.0000
vn -0.0004 0.0001 -1.0000
vn -0.0002 0.0001 -1.0000
vn -0.0006 -0.0000 -1.0000
vn -0.0010 -0.0006 -1.0000
vn 0.0000 0.1945 -0.9809
vn 0.0000 -0.5547 -0.8321
vn 0.0000 -0.9809 -0.1945
vn 0.0000 0.1945 0.9809
vn 0.0000 -0.8321 0.5547
vn 0.0000 0.8321 0.5547
vn 0.0000 -0.1945 0.9809
vn 0.0000 0.9809 -0.1945
vn 0.0000 0.5547 -0.8321
vn 0.0000 -0.1945 -0.9809
vn 0.0000 -0.8321 -0.5547
vn 0.0000 -0.9809 0.1945
vn 0.0000 0.5547 0.8321
vn 0.0000 -0.5547 0.8321
vn 0.0000 0.9809 0.1945
vn 0.0000 0.8321 -0.5547
vn 0.8314 -0.5557 -0.0000
vn 0.0000 0.3826 -0.9239
vn 0.2588 -0.9659 -0.0000
vn 0.2590 0.9659 -0.0000
vn -0.2588 -0.9659 -0.0000
vn 0.0000 0.6090 -0.7932
vn 0.4728 -0.8812 -0.0000
vn -0.4728 -0.8812 -0.0000
vn 0.0000 0.7938 -0.6081
vn -0.0001 0.7940 -0.6080
vn 0.0001 0.7940 -0.6080
vn 0.0016 0.9220 -0.3872
vn 0.0002 0.9234 -0.3839
vn -0.0011 0.9225 -0.3859
vn 0.0011 0.9225 -0.3859
vn -0.0016 0.9220 -0.3872
vn -0.0002 0.9234 -0.3839
vn 0.0000 -0.7881 -0.6155
vn 0.0000 -0.5824 -0.8129
vn 0.0000 -0.1487 -0.9889
vn 0.0000 0.7825 -0.6226
vn 0.0000 0.5472 -0.8370
vn -0.0360 0.2358 -0.9711
vn 0.0000 0.2405 -0.9707
# 129 vertex normals

vt 0.0000 0.0000 0.0000
# 1 texture coords

o Part_6
g Part_6
usemtl Color_26
s off
f 1/1/1 2/1/1 3/1/1 
f 4/1/2 3/1/2 5/1/2 
f 4/1/3 6/1/3 3/1/3 
f 6/1/3 1/1/3 3/1/3 
f 7/1/4 8/1/4 6/1/4 
f 8/1/4 1/1/4 6/1/4 
f 5/1/5 9/1/5 4/1/5 
f 9/1/6 10/1/6 4/1/6 
f 3/1/1 2/1/1 5/1/1 
f 11/1/7 10/1/7 12/1/7 
f 10/1/7 9/1/7 12/1/7 
f 13/1/8 14/1/8 15/1/8 
f 16/1/9 17/1/9 18/1/9 
f 17/1/9 19/1/9 18/1/9 
f 16/1/10 18/1/10 20/1/10 
f 18/1/10 21/1/10 20/1/10 
f 22/1/11 20/1/11 23/1/11 
f 20/1/11 21/1/11 23/1/11 
f 24/1/12 22/1/12 25/1/12 
f 22/1/12 23/1/12 25/1/12 
f 26/1/13 24/1/13 27/1/13 
f 24/1/13 25/1/13 27/1/13 
f 28/1/14 26/1/14 29/1/14 
f 26/1/14 27/1/14 29/1/14 
f 30/1/15 28/1/15 31/1/15 
f 28/1/15 29/1/15 31/1/15 
f 32/1/16 30/1/16 33/1/16 
f 30/1/16 31/1/16 33/1/16 
f 34/1/17 32/1/17 35/1/17 
f 32/1/17 33/1/17 35/1/17 
f 36/1/18 34/1/18 37/1/18 
f 34/1/18 35/1/18 37/1/18 
f 38/1/19 36/1/19 39/1/19 
f 36/1/19 37/1/19 39/1/19 
f 40/1/20 38/1/20 41/1/20 
f 38/1/20 39/1/20 41/1/20 
f 42/1/21 40/1/21 43/1/21 
f 40/1/21 41/1/21 43/1/21 
f 44/1/22 42/1/22 45/1/22 
f 42/1/22 43/1/22 45/1/22 
f 46/1/23 44/1/23 47/1/23 
f 44/1/23 45/1/23 47/1/23 
f 17/1/24 46/1/24 19/1/24 
f 46/1/24 47/1/24 19/1/24 
f 48/1/25 49/1/25 50/1/25 
f 49/1/25 51/1/25 50/1/25 
f 52/1/26 53/1/26 54/1/26 
f 53/1/26 51/1/26 54/1/26 
f 55/1/27 53/1/27 56/1/27 
f 53/1/27 57/1/27 56/1/27 
f 58/1/28 59/1/28 60/1/28 
f 59/1/28 61/1/28 60/1/28 
f 62/1/29 63/1/29 64/1/29 
f 63/1/29 65/1/29 64/1/29 
f 66/1/30 67/1/30 68/1/30 
f 67/1/30 69/1/30 68/1/30 
f 70/1/31 66/1/31 71/1/31 
f 66/1/31 68/1/31 71/1/31 
f 72/1/32 70/1/32 73/1/32 
f 70/1/32 71/1/32 73/1/32 
f 74/1/33 72/1/33 75/1/33 
f 72/1/33 73/1/33 75/1/33 
f 76/1/34 74/1/34 77/1/34 
f 74/1/34 75/1/34 77/1/34 
f 78/1/35 76/1/35 79/1/35 
f 76/1/35 77/1/35 79/1/35 
f 80/1/36 78/1/36 81/1/36 
f 78/1/36 79/1/36 81/1/36 
f 82/1/37 80/1/37 52/1/37 
f 80/1/37 81/1/37 52/1/37 
f 83/1/38 84/1/38 85/1/38 
f 84/1/38 86/1/38 85/1/38 
f 87/1/39 88/1/39 54/1/39 
f 88/1/39 89/1/39 54/1/39 
f 59/1/40 55/1/40 61/1/40 
f 55/1/40 56/1/40 61/1/40 
f 63/1/41 58/1/41 65/1/41 
f 58/1/41 60/1/41 65/1/41 
f 90/1/42 62/1/42 91/1/42 
f 62/1/42 64/1/42 91/1/42 
f 82/1/26 52/1/26 54/1/26 
f 52/1/26 57/1/26 53/1/26 
f 92/1/38 93/1/38 94/1/38 
f 93/1/38 95/1/38 94/1/38 
f 93/1/1 92/1/1 96/1/1 
f 92/1/1 97/1/1 96/1/1 
f 88/1/38 48/1/38 97/1/38 
f 48/1/38 96/1/38 97/1/38 
f 87/1/26 49/1/26 88/1/26 
f 49/1/26 48/1/26 88/1/26 
f 95/1/1 83/1/1 94/1/1 
f 83/1/1 85/1/1 94/1/1 
f 95/1/39 93/1/39 98/1/39 
f 93/1/39 96/1/39 98/1/39 
f 99/1/43 100/1/43 101/1/43 
f 100/1/43 102/1/43 101/1/43 
f 103/1/44 104/1/44 105/1/44 
f 104/1/44 106/1/44 105/1/44 
f 49/1/45 87/1/45 51/1/45 
f 87/1/45 54/1/45 51/1/45 
f 107/1/46 108/1/46 109/1/46 
f 108/1/47 110/1/47 109/1/47 
f 15/1/48 99/1/48 101/1/48 
f 100/1/49 111/1/49 102/1/49 
f 111/1/49 112/1/49 102/1/49 
f 111/1/50 103/1/50 112/1/50 
f 103/1/50 105/1/50 112/1/50 
f 92/1/51 94/1/51 97/1/51 
f 94/1/51 113/1/51 97/1/51 
f 104/1/52 90/1/52 106/1/52 
f 90/1/52 91/1/52 106/1/52 
f 114/1/53 115/1/53 5/1/53 
f 115/1/54 9/1/54 5/1/54 
f 116/1/17 12/1/17 115/1/17 
f 12/1/55 9/1/55 115/1/55 
f 117/1/18 12/1/18 118/1/18 
f 12/1/18 116/1/18 118/1/18 
f 119/1/56 120/1/56 121/1/56 
f 120/1/57 122/1/57 121/1/57 
f 121/1/19 117/1/19 119/1/19 
f 117/1/19 118/1/19 119/1/19 
f 119/1/58 123/1/58 120/1/58 
f 124/1/59 125/1/59 126/1/59 
f 125/1/60 127/1/60 126/1/60 
f 128/1/61 129/1/61 110/1/61 
f 129/1/61 130/1/61 110/1/61 
f 109/1/62 110/1/62 131/1/62 
f 110/1/63 130/1/63 131/1/63 
f 124/1/64 109/1/64 125/1/64 
f 109/1/65 131/1/65 125/1/65 
f 127/1/66 132/1/66 126/1/66 
f 122/1/67 129/1/67 128/1/67 
f 128/1/68 133/1/68 122/1/68 
f 133/1/69 121/1/69 122/1/69 
f 134/1/18 11/1/18 117/1/18 
f 11/1/18 12/1/18 117/1/18 
f 133/1/19 134/1/19 121/1/19 
f 134/1/19 117/1/19 121/1/19 
f 132/1/1 127/1/1 135/1/1 
f 113/1/38 98/1/38 89/1/38 
f 98/1/38 50/1/38 89/1/38 
f 113/1/51 94/1/51 45/1/51 
f 86/1/51 45/1/51 85/1/51 
f 45/1/51 94/1/51 85/1/51 
f 98/1/39 29/1/39 95/1/39 
f 84/1/39 83/1/39 29/1/39 
f 83/1/39 95/1/39 29/1/39 
f 47/1/26 45/1/26 86/1/26 
f 84/1/26 29/1/26 27/1/26 
f 19/1/26 47/1/26 86/1/26 
f 84/1/26 27/1/26 25/1/26 
f 18/1/26 19/1/26 86/1/26 
f 84/1/26 25/1/26 23/1/26 
f 21/1/26 18/1/26 86/1/26 
f 84/1/26 23/1/26 21/1/26 
f 84/1/26 21/1/26 86/1/26 
f 45/1/26 43/1/26 113/1/26 
f 43/1/26 41/1/26 113/1/26 
f 41/1/26 39/1/26 113/1/26 
f 98/1/26 113/1/26 37/1/26 
f 37/1/26 35/1/26 98/1/26 
f 35/1/26 33/1/26 98/1/26 
f 33/1/26 31/1/26 98/1/26 
f 31/1/26 29/1/26 98/1/26 
f 37/1/26 113/1/26 39/1/26 
f 100/1/70 99/1/70 111/1/70 
f 103/1/71 111/1/71 136/1/71 
f 111/1/72 99/1/72 136/1/72 
f 136/1/73 137/1/73 103/1/73 
f 137/1/74 104/1/74 103/1/74 
f 90/1/75 104/1/75 138/1/75 
f 104/1/75 137/1/75 138/1/75 
f 138/1/76 139/1/76 90/1/76 
f 139/1/76 62/1/76 90/1/76 
f 62/1/77 139/1/77 63/1/77 
f 139/1/77 140/1/77 63/1/77 
f 58/1/78 63/1/78 55/1/78 
f 63/1/79 53/1/79 55/1/79 
f 55/1/80 59/1/80 58/1/80 
f 140/1/81 53/1/81 63/1/81 
f 140/1/81 50/1/81 53/1/81 
f 50/1/82 51/1/82 53/1/82 
f 6/1/83 4/1/83 139/1/83 
f 4/1/84 140/1/84 139/1/84 
f 98/1/38 96/1/38 50/1/38 
f 96/1/38 48/1/38 50/1/38 
f 97/1/38 113/1/38 88/1/38 
f 113/1/38 89/1/38 88/1/38 
f 69/1/1 89/1/1 44/1/1 
f 44/1/1 89/1/1 42/1/1 
f 42/1/1 89/1/1 40/1/1 
f 40/1/1 89/1/1 38/1/1 
f 38/1/1 89/1/1 36/1/1 
f 36/1/1 50/1/1 34/1/1 
f 34/1/1 50/1/1 32/1/1 
f 32/1/1 50/1/1 30/1/1 
f 30/1/1 50/1/1 28/1/1 
f 28/1/85 50/1/85 140/1/85 
f 69/1/1 44/1/1 46/1/1 
f 26/1/86 28/1/86 140/1/86 
f 69/1/1 46/1/1 17/1/1 
f 24/1/87 26/1/87 140/1/87 
f 128/1/1 110/1/1 69/1/1 
f 110/1/1 108/1/1 69/1/1 
f 11/1/1 134/1/1 22/1/1 
f 134/1/1 20/1/1 22/1/1 
f 20/1/1 134/1/1 16/1/1 
f 134/1/1 133/1/1 16/1/1 
f 36/1/1 89/1/1 50/1/1 
f 22/1/1 10/1/1 11/1/1 
f 69/1/1 17/1/1 133/1/1 
f 17/1/1 16/1/1 133/1/1 
f 22/1/1 24/1/1 10/1/1 
f 24/1/88 140/1/88 10/1/88 
f 4/1/89 10/1/89 140/1/89 
f 128/1/1 69/1/1 133/1/1 
f 67/1/1 89/1/1 69/1/1 
f 70/1/39 72/1/39 89/1/39 
f 70/1/39 89/1/39 66/1/39 
f 66/1/39 89/1/39 67/1/39 
f 82/1/39 54/1/39 80/1/39 
f 80/1/39 54/1/39 78/1/39 
f 78/1/39 54/1/39 76/1/39 
f 54/1/39 89/1/39 76/1/39 
f 89/1/39 72/1/39 74/1/39 
f 89/1/39 74/1/39 76/1/39 
f 141/1/90 142/1/90 143/1/90 
f 142/1/90 144/1/90 143/1/90 
f 145/1/91 146/1/91 147/1/91 
f 146/1/91 148/1/91 147/1/91 
f 149/1/92 150/1/92 151/1/92 
f 150/1/92 152/1/92 151/1/92 
f 153/1/93 154/1/93 155/1/93 
f 154/1/93 156/1/93 155/1/93 
f 157/1/94 158/1/94 159/1/94 
f 158/1/94 160/1/94 159/1/94 
f 161/1/95 162/1/95 163/1/95 
f 162/1/95 164/1/95 163/1/95 
f 165/1/96 166/1/96 153/1/96 
f 166/1/96 154/1/96 153/1/96 
f 167/1/97 168/1/97 169/1/97 
f 168/1/97 170/1/97 169/1/97 
f 171/1/98 172/1/98 141/1/98 
f 172/1/98 142/1/98 141/1/98 
f 143/1/99 144/1/99 145/1/99 
f 144/1/99 146/1/99 145/1/99 
f 147/1/100 148/1/100 149/1/100 
f 148/1/100 150/1/100 149/1/100 
f 151/1/101 152/1/101 157/1/101 
f 152/1/101 158/1/101 157/1/101 
f 155/1/102 156/1/102 161/1/102 
f 156/1/102 162/1/102 161/1/102 
f 159/1/103 160/1/103 165/1/103 
f 160/1/103 166/1/103 165/1/103 
f 163/1/104 164/1/104 167/1/104 
f 164/1/104 168/1/104 167/1/104 
f 169/1/105 170/1/105 171/1/105 
f 170/1/105 172/1/105 171/1/105 
f 8/1/106 7/1/106 173/1/106 
f 7/1/106 174/1/106 173/1/106 
f 6/1/107 139/1/107 7/1/107 
f 139/1/107 138/1/107 7/1/107 
f 109/1/107 124/1/107 107/1/107 
f 124/1/107 175/1/107 107/1/107 
f 8/1/1 2/1/1 1/1/1 
f 2/1/1 8/1/1 173/1/1 
f 135/1/1 129/1/1 122/1/1 
f 135/1/1 130/1/1 129/1/1 
f 135/1/1 131/1/1 130/1/1 
f 135/1/1 125/1/1 131/1/1 
f 135/1/1 127/1/1 125/1/1 
f 176/1/108 14/1/108 177/1/108 
f 178/1/1 135/1/1 14/1/1 
f 13/1/109 15/1/109 178/1/109 
f 178/1/1 14/1/1 13/1/1 
f 179/1/110 180/1/110 178/1/110 
f 7/1/111 138/1/111 174/1/111 
f 138/1/111 137/1/111 174/1/111 
f 124/1/111 126/1/111 175/1/111 
f 126/1/111 181/1/111 175/1/111 
f 176/1/112 177/1/112 174/1/112 
f 177/1/112 173/1/112 174/1/112 
f 179/1/113 126/1/113 180/1/113 
f 126/1/113 132/1/113 180/1/113 
f 178/1/1 180/1/1 135/1/1 
f 180/1/1 132/1/1 135/1/1 
f 177/1/1 14/1/1 135/1/1 
f 177/1/1 135/1/1 173/1/1 
f 135/1/1 2/1/1 173/1/1 
f 174/1/114 137/1/114 176/1/114 
f 137/1/115 136/1/115 176/1/115 
f 126/1/114 179/1/114 181/1/114 
f 179/1/116 182/1/116 181/1/116 
f 178/1/117 101/1/117 179/1/117 
f 101/1/118 182/1/118 179/1/118 
f 15/1/119 14/1/119 99/1/119 
f 15/1/120 101/1/120 178/1/120 
f 14/1/121 176/1/121 99/1/121 
f 176/1/122 136/1/122 99/1/122 
f 183/1/123 184/1/123 185/1/123 
f 184/1/123 186/1/123 185/1/123 
f 2/1/38 135/1/38 185/1/38 
f 135/1/38 183/1/38 185/1/38 
f 187/1/124 188/1/124 184/1/124 
f 188/1/124 186/1/124 184/1/124 
f 189/1/125 190/1/125 187/1/125 
f 190/1/125 188/1/125 187/1/125 
f 118/1/126 116/1/126 119/1/126 
f 115/1/127 123/1/127 116/1/127 
f 123/1/127 119/1/127 116/1/127 
f 114/1/128 190/1/128 115/1/128 
f 189/1/129 123/1/129 190/1/129 
f 123/1/129 115/1/129 190/1/129 
f 142/1/51 123/1/51 144/1/51 
f 123/1/51 189/1/51 144/1/51 
f 168/1/51 122/1/51 120/1/51 
f 168/1/51 164/1/51 122/1/51 
f 164/1/51 162/1/51 122/1/51 
f 162/1/51 156/1/51 122/1/51 
f 156/1/51 154/1/51 122/1/51 
f 184/1/51 183/1/51 150/1/51 
f 183/1/51 152/1/51 150/1/51 
f 170/1/51 120/1/51 172/1/51 
f 154/1/51 135/1/51 122/1/51 
f 187/1/51 146/1/51 189/1/51 
f 146/1/51 144/1/51 189/1/51 
f 170/1/51 168/1/51 120/1/51 
f 184/1/51 148/1/51 187/1/51 
f 148/1/51 146/1/51 187/1/51 
f 166/1/51 135/1/51 154/1/51 
f 5/1/39 186/1/39 114/1/39 
f 186/1/39 190/1/39 114/1/39 
f 172/1/51 120/1/51 142/1/51 
f 120/1/51 123/1/51 142/1/51 
f 160/1/51 135/1/51 166/1/51 
f 184/1/51 150/1/51 148/1/51 
f 158/1/51 135/1/51 160/1/51 
f 186/1/39 5/1/39 185/1/39 
f 5/1/39 2/1/39 185/1/39 
f 152/1/51 183/1/51 158/1/51 
f 183/1/51 135/1/51 158/1/51 
f 186/1/39 188/1/39 190/1/39 
f 73/1/39 161/1/39 75/1/39 
f 161/1/39 163/1/39 75/1/39 
f 167/1/39 81/1/39 79/1/39 
f 57/1/39 52/1/39 81/1/39 
f 163/1/39 167/1/39 77/1/39 
f 167/1/39 79/1/39 77/1/39 
f 157/1/39 159/1/39 101/1/39 
f 159/1/39 182/1/39 101/1/39 
f 171/1/39 141/1/39 56/1/39 
f 141/1/39 61/1/39 56/1/39 
f 155/1/39 161/1/39 71/1/39 
f 161/1/39 73/1/39 71/1/39 
f 68/1/39 155/1/39 71/1/39 
f 151/1/39 157/1/39 102/1/39 
f 157/1/39 101/1/39 102/1/39 
f 106/1/39 147/1/39 105/1/39 
f 147/1/39 149/1/39 105/1/39 
f 141/1/39 60/1/39 61/1/39 
f 108/1/39 107/1/39 153/1/39 
f 107/1/39 165/1/39 153/1/39 
f 153/1/39 155/1/39 108/1/39 
f 105/1/39 149/1/39 112/1/39 
f 149/1/39 151/1/39 112/1/39 
f 159/1/39 181/1/39 182/1/39 
f 107/1/39 175/1/39 165/1/39 
f 65/1/39 60/1/39 143/1/39 
f 60/1/39 141/1/39 143/1/39 
f 91/1/39 64/1/39 145/1/39 
f 169/1/39 171/1/39 57/1/39 
f 171/1/39 56/1/39 57/1/39 
f 91/1/39 145/1/39 106/1/39 
f 145/1/39 147/1/39 106/1/39 
f 68/1/39 69/1/39 155/1/39 
f 69/1/39 108/1/39 155/1/39 
f 159/1/39 165/1/39 181/1/39 
f 165/1/39 175/1/39 181/1/39 
f 143/1/39 145/1/39 65/1/39 
f 145/1/39 64/1/39 65/1/39 
f 57/1/39 81/1/39 169/1/39 
f 81/1/39 167/1/39 169/1/39 
f 112/1/39 151/1/39 102/1/39 
f 75/1/39 163/1/39 77/1/39 
# 384 faces

