# 3ds Max Wavefront OBJ Exporter v0.99 - (c)2007 guruware
# File Created: 07.05.2020 21:32:25

mtllib pavimento.mtl

#
# object Plane002
#

v  -9.5719 0.0000 34.3846
v  -9.5719 0.0000 69.1884
v  -4.7030 0.0000 34.3846
v  -4.7030 0.0000 69.1884
v  0.1659 0.0000 34.3846
v  0.1659 0.0000 69.1884
v  5.0348 0.0000 34.3846
v  5.0348 0.0000 69.1884
v  9.9038 0.0000 34.3846
v  9.9038 0.0000 69.1884
v  -9.5719 0.0000 -0.4192
v  -4.7030 0.0000 -0.4192
v  0.1659 0.0000 -0.4192
v  5.0348 0.0000 -0.4192
v  9.9038 0.0000 -0.4192
v  -9.5719 0.0000 -35.2230
v  -4.7030 0.0000 -35.2230
v  0.1659 0.0000 -35.2230
v  5.0348 0.0000 -35.2230
v  9.9038 0.0000 -35.2230
v  -9.5719 0.0000 -70.0268
v  -4.7030 0.0000 -70.0268
v  0.1659 0.0000 -70.0268
v  5.0348 0.0000 -70.0268
v  9.9038 0.0000 -70.0268
# 25 vertices

vn 0.0000 1.0000 -0.0000
# 1 vertex normals

vt 0.0000 0.2500 0.0000
vt 0.0000 0.0000 0.0000
vt 0.2500 0.2500 0.0000
vt 0.2500 0.0000 0.0000
vt 0.5000 0.2500 0.0000
vt 0.5000 0.0000 0.0000
vt 0.7500 0.2500 0.0000
vt 0.7500 0.0000 0.0000
vt 1.0000 0.2500 0.0000
vt 1.0000 0.0000 0.0000
vt 0.0000 0.5000 0.0000
vt 0.2500 0.5000 0.0000
vt 0.5000 0.5000 0.0000
vt 0.7500 0.5000 0.0000
vt 1.0000 0.5000 0.0000
vt 0.0000 0.7500 0.0000
vt 0.2500 0.7500 0.0000
vt 0.5000 0.7500 0.0000
vt 0.7500 0.7500 0.0000
vt 1.0000 0.7500 0.0000
vt 0.0000 1.0000 0.0000
vt 0.2500 1.0000 0.0000
vt 0.5000 1.0000 0.0000
vt 0.7500 1.0000 0.0000
vt 1.0000 1.0000 0.0000
# 25 texture coords

o Plane002
g Plane002
usemtl Material__383
s 1
f 1/1/1 2/2/1 3/3/1 
f 4/4/1 3/3/1 2/2/1 
f 3/3/1 4/4/1 5/5/1 
f 6/6/1 5/5/1 4/4/1 
f 5/5/1 6/6/1 7/7/1 
f 8/8/1 7/7/1 6/6/1 
f 7/7/1 8/8/1 9/9/1 
f 10/10/1 9/9/1 8/8/1 
f 11/11/1 1/1/1 12/12/1 
f 3/3/1 12/12/1 1/1/1 
f 12/12/1 3/3/1 13/13/1 
f 5/5/1 13/13/1 3/3/1 
f 13/13/1 5/5/1 14/14/1 
f 7/7/1 14/14/1 5/5/1 
f 14/14/1 7/7/1 15/15/1 
f 9/9/1 15/15/1 7/7/1 
f 16/16/1 11/11/1 17/17/1 
f 12/12/1 17/17/1 11/11/1 
f 17/17/1 12/12/1 18/18/1 
f 13/13/1 18/18/1 12/12/1 
f 18/18/1 13/13/1 19/19/1 
f 14/14/1 19/19/1 13/13/1 
f 19/19/1 14/14/1 20/20/1 
f 15/15/1 20/20/1 14/14/1 
f 21/21/1 16/16/1 22/22/1 
f 17/17/1 22/22/1 16/16/1 
f 22/22/1 17/17/1 23/23/1 
f 18/18/1 23/23/1 17/17/1 
f 23/23/1 18/18/1 24/24/1 
f 19/19/1 24/24/1 18/18/1 
f 24/24/1 19/19/1 25/25/1 
f 20/20/1 25/25/1 19/19/1 
# 32 faces

#
# object Plane003
#

v  -69.4417 0.0000 4.5972
v  -69.4417 0.0000 9.3186
v  -34.6712 0.0000 4.5972
v  -34.6712 0.0000 9.3186
v  0.0994 0.0000 4.5972
v  0.0994 0.0000 9.3186
v  34.8699 0.0000 4.5972
v  34.8699 0.0000 9.3186
v  69.6404 0.0000 4.5972
v  69.6404 0.0000 9.3186
v  -69.4417 0.0000 -0.1242
v  -34.6712 0.0000 -0.1242
v  0.0994 0.0000 -0.1242
v  34.8699 0.0000 -0.1242
v  69.6404 0.0000 -0.1242
v  -69.4417 0.0000 -4.8456
v  -34.6712 0.0000 -4.8456
v  0.0994 0.0000 -4.8456
v  34.8699 0.0000 -4.8456
v  69.6404 0.0000 -4.8456
v  -69.4417 0.0000 -9.5670
v  -34.6712 0.0000 -9.5670
v  0.0994 0.0000 -9.5670
v  34.8699 0.0000 -9.5670
v  69.6404 0.0000 -9.5670
# 25 vertices

vn 0.0000 1.0000 -0.0000
# 1 vertex normals

vt 0.0000 0.2500 0.0000
vt 0.0000 0.0000 0.0000
vt 0.2500 0.2500 0.0000
vt 0.2500 0.0000 0.0000
vt 0.5000 0.2500 0.0000
vt 0.5000 0.0000 0.0000
vt 0.7500 0.2500 0.0000
vt 0.7500 0.0000 0.0000
vt 1.0000 0.2500 0.0000
vt 1.0000 0.0000 0.0000
vt 0.0000 0.5000 0.0000
vt 0.2500 0.5000 0.0000
vt 0.5000 0.5000 0.0000
vt 0.7500 0.5000 0.0000
vt 1.0000 0.5000 0.0000
vt 0.0000 0.7500 0.0000
vt 0.2500 0.7500 0.0000
vt 0.5000 0.7500 0.0000
vt 0.7500 0.7500 0.0000
vt 1.0000 0.7500 0.0000
vt 0.0000 1.0000 0.0000
vt 0.2500 1.0000 0.0000
vt 0.5000 1.0000 0.0000
vt 0.7500 1.0000 0.0000
vt 1.0000 1.0000 0.0000
# 25 texture coords

o Plane003
g Plane003
usemtl Material__383
s 1
f 26/26/2 27/27/2 28/28/2 
f 29/29/2 28/28/2 27/27/2 
f 28/28/2 29/29/2 30/30/2 
f 31/31/2 30/30/2 29/29/2 
f 30/30/2 31/31/2 32/32/2 
f 33/33/2 32/32/2 31/31/2 
f 32/32/2 33/33/2 34/34/2 
f 35/35/2 34/34/2 33/33/2 
f 36/36/2 26/26/2 37/37/2 
f 28/28/2 37/37/2 26/26/2 
f 37/37/2 28/28/2 38/38/2 
f 30/30/2 38/38/2 28/28/2 
f 38/38/2 30/30/2 39/39/2 
f 32/32/2 39/39/2 30/30/2 
f 39/39/2 32/32/2 40/40/2 
f 34/34/2 40/40/2 32/32/2 
f 41/41/2 36/36/2 42/42/2 
f 37/37/2 42/42/2 36/36/2 
f 42/42/2 37/37/2 43/43/2 
f 38/38/2 43/43/2 37/37/2 
f 43/43/2 38/38/2 44/44/2 
f 39/39/2 44/44/2 38/38/2 
f 44/44/2 39/39/2 45/45/2 
f 40/40/2 45/45/2 39/39/2 
f 46/46/2 41/41/2 47/47/2 
f 42/42/2 47/47/2 41/41/2 
f 47/47/2 42/42/2 48/48/2 
f 43/43/2 48/48/2 42/42/2 
f 48/48/2 43/43/2 49/49/2 
f 44/44/2 49/49/2 43/43/2 
f 49/49/2 44/44/2 50/50/2 
f 45/45/2 50/50/2 44/44/2 
# 32 faces

#
# object Plane004
#

v  21.5867 0.0000 37.6451
v  51.3292 0.0000 67.3876
v  25.7476 0.0000 33.4842
v  55.4901 0.0000 63.2267
v  29.9084 0.0000 29.3233
v  59.6510 0.0000 59.0658
v  34.0693 0.0000 25.1624
v  63.8118 0.0000 54.9050
v  38.2302 0.0000 21.0016
v  67.9727 0.0000 50.7441
v  -8.1558 0.0000 7.9025
v  -3.9950 0.0000 3.7417
v  0.1659 0.0000 -0.4192
v  4.3268 0.0000 -4.5801
v  8.4876 0.0000 -8.7410
v  -37.8984 0.0000 -21.8400
v  -33.7375 0.0000 -26.0009
v  -29.5766 0.0000 -30.1617
v  -25.4158 0.0000 -34.3226
v  -21.2549 0.0000 -38.4835
v  -67.6409 0.0000 -51.5825
v  -63.4800 0.0000 -55.7434
v  -59.3192 0.0000 -59.9043
v  -55.1583 0.0000 -64.0652
v  -50.9974 0.0000 -68.2260
# 25 vertices

vn 0.0000 1.0000 -0.0000
# 1 vertex normals

vt 0.0000 0.2500 0.0000
vt 0.0000 0.0000 0.0000
vt 0.2500 0.2500 0.0000
vt 0.2500 0.0000 0.0000
vt 0.5000 0.2500 0.0000
vt 0.5000 0.0000 0.0000
vt 0.7500 0.2500 0.0000
vt 0.7500 0.0000 0.0000
vt 1.0000 0.2500 0.0000
vt 1.0000 0.0000 0.0000
vt 0.0000 0.5000 0.0000
vt 0.2500 0.5000 0.0000
vt 0.5000 0.5000 0.0000
vt 0.7500 0.5000 0.0000
vt 1.0000 0.5000 0.0000
vt 0.0000 0.7500 0.0000
vt 0.2500 0.7500 0.0000
vt 0.5000 0.7500 0.0000
vt 0.7500 0.7500 0.0000
vt 1.0000 0.7500 0.0000
vt 0.0000 1.0000 0.0000
vt 0.2500 1.0000 0.0000
vt 0.5000 1.0000 0.0000
vt 0.7500 1.0000 0.0000
vt 1.0000 1.0000 0.0000
# 25 texture coords

o Plane004
g Plane004
usemtl Material__383
s 1
f 51/51/3 52/52/3 53/53/3 
f 54/54/3 53/53/3 52/52/3 
f 53/53/3 54/54/3 55/55/3 
f 56/56/3 55/55/3 54/54/3 
f 55/55/3 56/56/3 57/57/3 
f 58/58/3 57/57/3 56/56/3 
f 57/57/3 58/58/3 59/59/3 
f 60/60/3 59/59/3 58/58/3 
f 61/61/3 51/51/3 62/62/3 
f 53/53/3 62/62/3 51/51/3 
f 62/62/3 53/53/3 63/63/3 
f 55/55/3 63/63/3 53/53/3 
f 63/63/3 55/55/3 64/64/3 
f 57/57/3 64/64/3 55/55/3 
f 64/64/3 57/57/3 65/65/3 
f 59/59/3 65/65/3 57/57/3 
f 66/66/3 61/61/3 67/67/3 
f 62/62/3 67/67/3 61/61/3 
f 67/67/3 62/62/3 68/68/3 
f 63/63/3 68/68/3 62/62/3 
f 68/68/3 63/63/3 69/69/3 
f 64/64/3 69/69/3 63/63/3 
f 69/69/3 64/64/3 70/70/3 
f 65/65/3 70/70/3 64/64/3 
f 71/71/3 66/66/3 72/72/3 
f 67/67/3 72/72/3 66/66/3 
f 72/72/3 67/67/3 73/73/3 
f 68/68/3 73/73/3 67/67/3 
f 73/73/3 68/68/3 74/74/3 
f 69/69/3 74/74/3 68/68/3 
f 74/74/3 69/69/3 75/75/3 
f 70/70/3 75/75/3 69/69/3 
# 32 faces

