# 3ds Max Wavefront OBJ Exporter v0.99 - (c)2007 guruware
# File Created: 03.05.2020 20:51:18

mtllib Barda01.mtl

#
# object default
#

v  7.1841 1.9975 -1.7228
v  7.1841 1.4264 -1.7228
v  7.1841 1.4264 -8.5709
v  7.1841 1.9975 -8.5709
v  6.4229 1.9975 -1.7228
v  6.4229 1.4264 -1.7228
v  6.4229 1.9975 -8.5709
v  6.4229 1.4264 -8.5709
v  6.4653 2.0047 -8.5463
v  6.4653 1.4336 -8.5463
v  -6.4413 1.4336 -8.5463
v  -6.4413 2.0047 -8.5463
v  6.4653 2.0047 -7.7851
v  6.4653 1.4336 -7.7851
v  -6.4413 2.0047 -7.7851
v  -6.4413 1.4336 -7.7851
v  -6.4041 1.9975 -1.7228
v  -6.4041 1.4264 -1.7228
v  -6.4041 1.4264 -8.5709
v  -6.4041 1.9975 -8.5709
v  -7.1654 1.9975 -1.7228
v  -7.1654 1.4264 -1.7228
v  -7.1654 1.9975 -8.5709
v  -7.1654 1.4264 -8.5709
v  -7.1578 1.9975 2.1401
v  -7.1578 1.4264 2.1401
v  -7.1578 1.4264 8.9882
v  -7.1578 1.9975 8.9882
v  -6.3966 1.9975 2.1401
v  -6.3966 1.4264 2.1401
v  -6.3965 1.9975 8.9882
v  -6.3965 1.4264 8.9882
v  -6.4389 2.0047 8.9637
v  -6.4389 1.4336 8.9637
v  6.4676 1.4336 8.9637
v  6.4676 2.0047 8.9637
v  -6.4389 2.0047 8.2024
v  -6.4389 1.4336 8.2024
v  6.4676 2.0047 8.2024
v  6.4676 1.4336 8.2024
v  6.4305 1.9975 2.1401
v  6.4305 1.4264 2.1401
v  6.4305 1.4264 8.9882
v  6.4305 1.9975 8.9882
v  7.1917 1.9975 2.1401
v  7.1917 1.4264 2.1401
v  7.1917 1.9975 8.9882
v  7.1917 1.4264 8.9882
# 48 vertices

vn 1.0000 0.0000 -0.0000
vn 0.0000 0.0000 1.0000
vn -1.0000 0.0000 -0.0000
vn 0.0000 0.0000 -1.0000
vn 0.0000 -1.0000 -0.0000
vn 0.0000 1.0000 -0.0000
# 6 vertex normals

vt 0.6250 0.2500 0.0000
vt 0.3750 0.2500 0.0000
vt 0.3750 0.0000 0.0000
vt 0.6250 0.0000 0.0000
vt 0.6250 0.5000 0.0000
vt 0.3750 0.5000 0.0000
vt 0.6250 0.7500 0.0000
vt 0.3750 0.7500 0.0000
vt 0.6250 1.0000 0.0000
vt 0.3750 1.0000 0.0000
vt 0.1250 0.7500 0.0000
vt 0.1250 0.5000 0.0000
vt 0.8750 0.7500 0.0000
vt 0.8750 0.5000 0.0000
# 14 texture coords

o default
g default
usemtl wire_177028149
s off
f 1/1/1 2/2/1 3/3/1 
f 3/3/1 4/4/1 1/1/1 
f 5/5/2 6/6/2 2/2/2 
f 2/2/2 1/1/2 5/5/2 
f 7/7/3 8/8/3 6/6/3 
f 6/6/3 5/5/3 7/7/3 
f 4/9/4 3/10/4 8/8/4 
f 8/8/4 7/7/4 4/9/4 
f 8/8/5 3/11/5 2/12/5 
f 2/12/5 6/6/5 8/8/5 
f 4/13/6 7/7/6 5/5/6 
f 5/5/6 1/14/6 4/13/6 
f 9/1/4 10/2/4 11/3/4 
f 11/3/4 12/4/4 9/1/4 
f 13/5/1 14/6/1 10/2/1 
f 10/2/1 9/1/1 13/5/1 
f 15/7/2 16/8/2 14/6/2 
f 14/6/2 13/5/2 15/7/2 
f 12/9/3 11/10/3 16/8/3 
f 16/8/3 15/7/3 12/9/3 
f 16/8/5 11/11/5 10/12/5 
f 10/12/5 14/6/5 16/8/5 
f 12/13/6 15/7/6 13/5/6 
f 13/5/6 9/14/6 12/13/6 
f 17/1/1 18/2/1 19/3/1 
f 19/3/1 20/4/1 17/1/1 
f 21/5/2 22/6/2 18/2/2 
f 18/2/2 17/1/2 21/5/2 
f 23/7/3 24/8/3 22/6/3 
f 22/6/3 21/5/3 23/7/3 
f 20/9/4 19/10/4 24/8/4 
f 24/8/4 23/7/4 20/9/4 
f 24/8/5 19/11/5 18/12/5 
f 18/12/5 22/6/5 24/8/5 
f 20/13/6 23/7/6 21/5/6 
f 21/5/6 17/14/6 20/13/6 
f 25/1/3 26/2/3 27/3/3 
f 27/3/3 28/4/3 25/1/3 
f 29/5/4 30/6/4 26/2/4 
f 26/2/4 25/1/4 29/5/4 
f 31/7/1 32/8/1 30/6/1 
f 30/6/1 29/5/1 31/7/1 
f 28/9/2 27/10/2 32/8/2 
f 32/8/2 31/7/2 28/9/2 
f 32/8/5 27/11/5 26/12/5 
f 26/12/5 30/6/5 32/8/5 
f 28/13/6 31/7/6 29/5/6 
f 29/5/6 25/14/6 28/13/6 
f 33/1/2 34/2/2 35/3/2 
f 35/3/2 36/4/2 33/1/2 
f 37/5/3 38/6/3 34/2/3 
f 34/2/3 33/1/3 37/5/3 
f 39/7/4 40/8/4 38/6/4 
f 38/6/4 37/5/4 39/7/4 
f 36/9/1 35/10/1 40/8/1 
f 40/8/1 39/7/1 36/9/1 
f 40/8/5 35/11/5 34/12/5 
f 34/12/5 38/6/5 40/8/5 
f 36/13/6 39/7/6 37/5/6 
f 37/5/6 33/14/6 36/13/6 
f 41/1/3 42/2/3 43/3/3 
f 43/3/3 44/4/3 41/1/3 
f 45/5/4 46/6/4 42/2/4 
f 42/2/4 41/1/4 45/5/4 
f 47/7/1 48/8/1 46/6/1 
f 46/6/1 45/5/1 47/7/1 
f 44/9/2 43/10/2 48/8/2 
f 48/8/2 47/7/2 44/9/2 
f 48/8/5 43/11/5 42/12/5 
f 42/12/5 46/6/5 48/8/5 
f 44/13/6 47/7/6 45/5/6 
f 45/5/6 41/14/6 44/13/6 
# 72 faces

